<?xml version="1.0" standalone="no"?>
<!DOCTYPE svg PUBLIC "-//W3C//DTD SVG 20010904//EN"
 "http://www.w3.org/TR/2001/REC-SVG-20010904/DTD/svg10.dtd">
<svg version="1.0" xmlns="http://www.w3.org/2000/svg"
 width="760.000000pt" height="760.000000pt" viewBox="0 0 760.000000 760.000000"
 preserveAspectRatio="xMidYMid meet">
<metadata>
Created by potrace 1.14, written by Peter Selinger 2001-2017
</metadata>
<g transform="translate(0.000000,760.000000) scale(0.100000,-0.100000)"
fill="#000000" stroke="none">
<path d="M5090 7502 c0 -4 -19 -7 -42 -7 -45 0 -124 -11 -137 -19 -4 -3 -21
-8 -37 -11 -16 -3 -36 -8 -44 -10 -8 -2 -21 -4 -28 -4 -7 -1 -10 -6 -6 -13 4
-6 3 -8 -4 -4 -13 8 -92 -15 -92 -27 0 -5 -4 -6 -9 -3 -4 3 -37 -8 -72 -25
-35 -16 -81 -37 -101 -47 -21 -9 -38 -20 -38 -24 0 -5 -5 -8 -10 -8 -20 0
-100 -56 -93 -65 5 -4 3 -5 -4 -2 -26 16 -229 -167 -295 -265 -16 -23 -28 -51
-28 -64 0 -31 -12 -36 -59 -25 -30 6 -39 6 -34 -3 5 -8 3 -7 -8 1 -8 6 -39 14
-69 16 -30 3 -64 8 -74 13 -14 5 -17 4 -11 -5 6 -10 3 -10 -16 0 -18 10 -90
13 -284 12 -143 0 -280 -3 -305 -6 -25 -3 -58 -5 -73 -6 -16 -1 -26 -4 -23 -9
2 -4 -14 -6 -36 -4 -32 4 -39 2 -32 -9 6 -11 5 -12 -7 -3 -10 7 -29 7 -67 0
-30 -6 -51 -13 -49 -16 3 -3 -9 -5 -26 -4 -18 1 -45 -3 -62 -8 -16 -5 -41 -11
-55 -13 -14 -3 -52 -12 -85 -20 -33 -9 -79 -21 -103 -26 -26 -7 -40 -15 -36
-21 4 -7 2 -8 -4 -4 -14 8 -122 -24 -122 -36 0 -5 -4 -7 -9 -4 -17 11 -345
-129 -336 -144 3 -4 -4 -6 -15 -3 -12 3 -22 -1 -26 -10 -3 -9 -11 -14 -17 -11
-7 2 -50 -18 -96 -46 -46 -27 -86 -50 -88 -50 -2 0 -66 -41 -140 -92 -153
-103 -266 -193 -398 -314 -13 -12 -21 -25 -17 -29 4 -4 2 -5 -5 -3 -15 4 -154
-142 -146 -155 3 -6 1 -7 -4 -4 -6 4 -20 -6 -32 -22 -13 -16 -36 -44 -53 -63
-16 -18 -50 -60 -74 -93 -24 -33 -49 -66 -55 -73 -34 -41 -153 -240 -159 -266
-4 -17 -10 -41 -14 -54 -8 -23 -7 -23 23 -8 37 20 37 20 45 0 5 -14 4 -15 -9
-4 -17 14 -21 0 -3 -18 8 -8 8 -15 -1 -26 -7 -8 -9 -21 -5 -27 4 -7 3 -9 -3
-6 -6 4 -13 0 -17 -8 -3 -8 -1 -17 4 -20 15 -10 12 -25 -6 -25 -8 0 -12 -4 -9
-10 4 -6 -1 -7 -11 -3 -13 5 -15 3 -9 -7 5 -9 4 -11 -3 -6 -7 4 -12 2 -12 -3
0 -6 6 -11 13 -11 6 0 4 -5 -6 -11 -10 -6 -14 -15 -10 -22 5 -9 3 -9 -8 0 -15
12 -50 12 -49 0 0 -4 0 -10 0 -13 0 -4 6 -1 14 5 10 8 16 9 21 1 3 -5 -1 -10
-11 -10 -14 0 -15 -2 -3 -17 13 -15 12 -15 -9 -2 -20 12 -24 12 -33 -3 -6 -10
-16 -15 -27 -12 -14 5 -15 4 -2 -5 8 -6 15 -18 15 -27 0 -10 6 -19 14 -22 9
-3 11 0 6 8 -6 9 -4 11 4 5 18 -10 0 -26 -35 -30 -23 -2 -25 0 -13 9 16 12 19
36 4 36 -5 0 -10 -8 -10 -18 0 -9 -5 -16 -12 -15 -7 2 -10 -4 -6 -13 3 -8 11
-13 18 -10 6 2 18 0 26 -5 11 -7 11 -9 1 -9 -7 0 -10 -5 -6 -12 5 -7 3 -8 -7
-2 -8 4 -23 9 -34 11 -11 1 -14 -1 -7 -3 6 -3 12 -13 12 -22 0 -15 2 -15 10
-2 7 12 9 10 7 -7 -1 -18 -4 -20 -16 -10 -12 10 -14 9 -8 -6 4 -10 7 -21 7
-23 0 -3 5 -2 10 1 13 8 8 -18 -5 -27 -5 -4 -14 -8 -20 -8 -5 0 -3 5 5 10 11
7 12 12 4 18 -6 4 -10 21 -8 37 2 24 1 27 -7 12 -6 -9 -16 -15 -22 -11 -7 3
-5 0 3 -8 17 -14 21 -49 5 -45 -5 1 -9 6 -7 12 2 5 0 6 -4 2 -11 -11 -14 -38
-4 -32 5 3 11 1 15 -5 4 -6 11 -7 17 -4 7 5 8 2 4 -5 -5 -7 -15 -10 -23 -7 -8
4 -11 1 -8 -5 4 -6 13 -8 21 -5 7 3 16 1 19 -5 4 -5 10 -7 14 -5 4 3 7 -3 6
-14 -1 -21 -25 -53 -33 -45 -3 3 3 12 14 20 10 8 14 15 7 15 -6 0 -15 -5 -18
-10 -4 -6 -11 -8 -16 -5 -5 3 -6 -1 -3 -9 5 -12 -1 -16 -22 -16 -25 0 -26 -1
-10 -13 12 -9 19 -30 22 -67 6 -86 73 -412 89 -437 30 -46 65 -21 116 79 43
85 104 175 169 250 l25 28 65 -18 c70 -20 68 -17 56 -97 -2 -11 2 -23 8 -27 8
-5 7 -8 -2 -8 -7 0 -10 -4 -7 -10 3 -5 2 -10 -4 -10 -5 0 -8 -8 -6 -17 1 -10
8 -17 15 -15 6 1 9 -2 5 -8 -3 -6 -10 -8 -14 -5 -10 6 -21 -53 -21 -112 0 -72
26 -66 122 31 61 61 208 166 232 166 10 0 214 -56 761 -210 83 -24 222 -64
310 -90 88 -25 310 -84 492 -131 183 -46 333 -89 333 -95 0 -6 -6 -11 -12 -12
-7 0 -92 -24 -188 -52 -96 -28 -292 -85 -435 -126 -143 -42 -262 -80 -263 -85
-2 -5 -8 -7 -13 -4 -4 3 -50 -6 -101 -20 -51 -15 -133 -38 -183 -51 -49 -14
-97 -28 -105 -31 -8 -3 -18 -6 -22 -5 -4 1 -20 -3 -35 -10 -34 -14 -29 -13
-81 -22 -23 -4 -40 -11 -38 -14 2 -4 -9 -7 -24 -8 -15 -1 -36 -5 -46 -9 -11
-4 -26 -9 -34 -11 -8 -2 -71 -20 -140 -40 -69 -20 -133 -39 -142 -41 -10 -3
-18 -10 -18 -15 0 -5 -4 -7 -9 -4 -8 5 -90 -15 -131 -31 -8 -3 -19 -7 -25 -8
-32 -4 -113 -23 -300 -71 -198 -50 -211 -52 -228 -36 -11 9 -21 15 -22 12 -2
-3 -7 -1 -12 3 -4 5 -2 7 6 5 7 -2 16 3 19 11 2 8 0 11 -5 8 -5 -3 -9 3 -9 13
0 18 1 18 17 2 9 -9 15 -25 13 -34 -1 -9 4 -19 12 -22 16 -6 19 10 4 19 -8 5
-8 11 0 20 8 10 8 15 -1 21 -8 5 -9 3 -4 -6 5 -8 4 -11 -3 -6 -6 4 -9 13 -5
22 3 8 2 14 -3 13 -20 -3 -34 2 -34 12 0 8 4 9 13 0 8 -6 17 -8 21 -4 4 4 -4
13 -16 20 -13 7 -17 12 -10 13 9 0 11 8 7 23 -3 12 5 2 19 -23 13 -25 22 -48
19 -52 -2 -5 0 -8 5 -8 5 0 14 -11 20 -25 6 -14 16 -25 22 -25 6 0 2 17 -9 38
-29 57 -58 169 -66 251 -8 88 -27 123 -64 119 -19 -2 -26 -9 -25 -25 0 -12 -3
-20 -7 -18 -4 3 -12 -9 -18 -25 -5 -17 -7 -30 -3 -30 4 0 1 -4 -6 -9 -10 -6
-88 -206 -90 -231 -1 -8 -8 -30 -37 -112 -21 -61 -31 -78 -46 -78 -11 0 -22
-7 -25 -15 -4 -8 -10 -12 -15 -9 -5 3 -9 -4 -9 -15 0 -12 -4 -21 -10 -21 -21
0 6 -122 71 -320 245 -742 720 -1350 1380 -1765 214 -135 546 -282 792 -351
71 -19 97 -31 93 -41 -3 -7 0 -13 7 -13 7 0 8 -3 2 -8 -14 -10 -17 -32 -5 -32
7 0 7 -7 2 -17 -10 -21 -10 -33 1 -50 5 -8 3 -13 -4 -13 -10 0 -10 -3 -1 -12
14 -14 16 -32 4 -24 -11 6 -9 -25 2 -42 4 -7 2 -20 -5 -28 -10 -12 -10 -15 2
-12 9 2 13 -4 11 -17 -2 -15 0 -16 6 -7 5 8 8 24 6 38 -1 13 2 26 7 30 5 3 9
11 9 17 0 7 -7 3 -15 -7 -8 -11 -15 -15 -15 -9 0 5 9 20 19 32 10 12 22 41 25
65 9 58 17 100 19 103 1 1 29 -5 62 -12 53 -13 153 -30 283 -50 38 -6 42 -9
37 -32 -2 -14 0 -34 6 -44 6 -11 6 -19 1 -19 -6 0 -12 -11 -14 -25 -3 -13 -1
-22 4 -19 4 3 11 -2 14 -10 3 -9 10 -16 16 -16 5 0 2 10 -6 22 -20 28 -20 35
-1 35 9 0 14 -6 11 -14 -4 -8 -1 -11 5 -8 6 4 8 13 5 20 -3 8 0 16 7 19 9 3 9
5 0 5 -7 1 -13 6 -13 13 0 6 -8 20 -17 31 -10 11 -13 17 -6 14 6 -4 13 -4 16
0 2 5 2 2 1 -5 -2 -7 3 -15 11 -18 8 -4 12 -11 8 -18 -3 -6 -2 -7 2 -3 14 12
15 38 2 30 -7 -3 -4 3 6 14 15 17 24 19 65 12 75 -11 394 -7 542 7 569 56
1102 254 1554 578 138 98 126 93 153 60 13 -16 21 -22 18 -13 -7 19 20 46 30
29 4 -6 1 -9 -6 -8 -6 2 -14 -3 -17 -11 -3 -8 0 -11 7 -7 7 5 9 1 5 -8 -3 -9
-11 -16 -18 -16 -16 1 -47 26 -41 34 3 3 0 2 -6 -3 -8 -6 1 -26 29 -63 56 -74
865 -878 884 -878 9 0 18 11 20 25 3 13 1 22 -3 19 -4 -2 -13 5 -19 16 -6 11
-8 20 -5 20 3 0 1 10 -5 23 -11 21 -10 21 4 3 9 -10 13 -23 9 -29 -3 -6 -1 -7
5 -3 6 4 9 14 6 24 -4 9 4 4 16 -13 12 -16 20 -22 16 -13 -5 17 8 26 17 11 2
-5 2 -3 1 4 -2 7 1 15 6 18 6 4 10 0 10 -7 0 -9 3 -9 10 2 6 10 10 11 10 3 0
-7 5 -13 11 -13 8 0 8 4 0 14 -14 16 -26 15 -61 -3 -14 -8 -22 -10 -18 -6 4 5
2 15 -4 24 -10 13 -10 14 2 3 19 -16 35 -15 21 2 -9 10 -8 15 3 19 10 4 13 1
10 -8 -4 -10 3 -12 32 -8 29 4 35 2 29 -9 -5 -7 -5 -10 0 -6 4 4 15 2 24 -5
14 -10 14 -10 4 3 -9 12 -8 19 3 34 7 10 11 23 8 27 -3 5 -1 9 5 9 5 0 12 -10
14 -22 l4 -23 2 23 c1 15 5 21 13 16 7 -4 8 -3 4 5 -4 6 -11 9 -15 7 -4 -3
-13 -1 -20 4 -10 6 -8 9 8 15 11 3 21 11 21 17 0 6 -6 5 -16 -3 -13 -10 -17
-10 -25 2 -7 10 -8 6 -5 -13 3 -15 0 -30 -5 -34 -5 -3 -7 -9 -5 -13 3 -4 1
-13 -5 -21 -5 -10 -9 -11 -9 -3 0 7 -7 10 -17 7 -17 -5 -17 -5 0 6 9 6 15 15
12 19 -2 5 2 14 10 21 8 7 12 16 10 21 -7 10 16 49 29 49 4 0 3 -7 -4 -15 -9
-10 -9 -15 -1 -15 10 0 15 14 12 33 -1 5 9 5 21 1 21 -6 21 -6 5 11 -14 13
-15 20 -6 31 6 8 16 11 23 7 6 -3 2 4 -9 17 -15 18 -16 22 -4 18 9 -4 16 -1
16 7 0 8 -5 13 -11 12 -18 -3 -26 -20 -15 -33 7 -8 6 -14 -1 -19 -5 -3 -10 1
-10 10 0 9 -5 13 -10 10 -6 -4 -7 -12 -3 -18 12 -19 12 -38 1 -31 -7 4 -8 2
-4 -4 4 -7 2 -12 -3 -12 -14 0 -14 13 1 28 9 9 7 13 -6 18 -15 6 -15 8 4 21
25 17 27 35 3 26 -19 -7 -18 -5 11 17 11 8 17 10 13 3 -5 -7 0 -9 15 -5 l22 5
-24 9 c-14 5 -27 4 -35 -2 -10 -9 -13 -7 -10 7 2 10 4 19 4 20 1 1 16 -2 34
-7 28 -8 30 -8 15 4 -10 7 -18 17 -18 21 0 4 -8 14 -17 21 -17 13 -17 14 2 7
17 -6 18 -5 7 9 -10 13 -10 17 2 21 16 6 26 -1 26 -17 0 -6 -5 -4 -10 4 -7 12
-9 11 -8 -5 1 -11 9 -28 18 -37 15 -16 16 -16 16 2 0 10 -3 17 -7 14 -4 -2 -7
6 -8 19 -1 42 -4 57 -13 57 -4 0 -8 -5 -8 -12 0 -6 -3 -8 -6 -5 -4 4 -2 13 4
20 7 8 8 18 4 22 -4 5 -1 4 7 0 11 -6 13 -4 8 9 -4 10 -3 15 3 11 5 -3 7 -19
5 -35 -2 -16 1 -33 7 -36 6 -4 8 -2 4 4 -3 6 2 15 11 21 10 6 12 11 6 11 -7 0
-13 9 -13 19 0 11 -5 23 -10 26 -6 4 -7 11 -4 17 5 8 1 9 -12 4 -10 -4 -15 -3
-10 1 4 4 20 8 34 8 23 0 27 4 27 30 0 26 -4 30 -25 28 -14 -1 -20 1 -13 3 7
3 9 13 6 22 -3 10 -2 13 4 6 14 -18 41 -24 39 -9 -1 8 -6 18 -11 22 -4 4 -5 2
0 -6 6 -10 4 -12 -4 -7 -7 5 -10 10 -7 14 3 3 -2 11 -12 19 -15 13 -15 13 5 4
31 -15 32 -14 28 19 -3 21 -1 28 7 24 6 -4 8 -3 4 4 -3 6 -2 13 4 17 7 4 5 14
-5 28 -20 28 -19 46 1 21 15 -18 15 -18 9 9 -4 20 -2 27 10 27 9 0 14 -4 11
-8 -3 -5 -8 -31 -11 -58 -3 -27 -18 -140 -33 -251 -15 -112 -25 -199 -21 -195
4 4 14 57 23 117 10 61 35 223 56 360 22 138 64 423 95 635 69 472 183 1244
190 1285 6 33 22 142 90 602 25 166 47 315 49 330 3 15 28 181 56 368 28 187
59 392 70 455 15 93 108 715 125 835 2 17 9 84 15 150 15 149 18 167 30 160 6
-4 13 1 16 9 3 9 11 13 17 9 5 -3 7 -1 3 5 -3 5 0 12 6 15 7 3 2 5 -12 4 -14
0 -33 -7 -42 -15 -10 -8 -18 -12 -18 -8 0 4 -10 1 -22 -6 -13 -7 -26 -11 -30
-10 -5 1 -8 -2 -8 -8 0 -5 -6 -10 -14 -10 -8 0 -22 -8 -32 -17 -10 -10 -18
-17 -18 -15 -2 9 -56 -19 -56 -28 0 -6 -4 -9 -9 -5 -5 3 -17 -3 -27 -12 -10
-10 -20 -17 -23 -16 -11 5 -41 -8 -41 -18 0 -5 -6 -9 -14 -9 -8 0 -21 -6 -28
-13 -7 -7 -17 -14 -21 -14 -4 -1 -21 -6 -38 -13 -23 -10 -28 -17 -23 -34 6
-21 6 -21 -11 -1 -16 19 -16 19 -11 -10 5 -27 4 -28 -5 -8 l-11 21 -35 -20
c-22 -14 -32 -26 -28 -36 6 -16 -11 -42 -29 -42 -6 0 -3 5 7 11 9 5 17 15 17
20 0 6 -4 7 -10 4 -5 -3 -8 0 -7 7 2 7 2 10 0 6 -3 -5 -11 -8 -18 -8 -8 0 -19
-8 -24 -17 -6 -10 -11 -13 -11 -7 0 6 -28 -2 -62 -18 -35 -17 -85 -40 -113
-52 -153 -70 -177 -81 -187 -93 -5 -7 -14 -10 -19 -8 -4 3 -27 -4 -50 -16 -23
-11 -59 -27 -80 -34 l-38 -14 -47 76 c-257 413 -564 732 -951 990 -90 59 -143
101 -143 111 0 9 29 76 64 148 76 156 168 275 358 465 118 118 143 149 119
149 -5 0 -16 6 -23 14 -81 86 -123 126 -135 126 -7 0 -13 4 -13 8 0 11 -125
73 -153 76 -12 1 -30 6 -39 10 -9 4 -42 8 -72 9 -31 1 -56 4 -56 7 0 3 -9 6
-20 7 -11 1 -20 -3 -20 -8 0 -6 -6 -7 -12 -2 -18 11 -48 14 -48 5z m484 -200
c3 -5 -1 -9 -9 -9 -8 0 -12 4 -9 9 3 4 7 8 9 8 2 0 6 -4 9 -8z m30 -20 c3 -5
-1 -9 -9 -9 -8 0 -12 4 -9 9 3 4 7 8 9 8 2 0 6 -4 9 -8z m26 -34 c0 -14 -15
-16 -27 -3 -10 11 -9 13 7 12 11 -1 20 -5 20 -9z m-2160 -348 c0 -5 -5 -10
-11 -10 -5 0 -7 5 -4 10 3 6 8 10 11 10 2 0 4 -4 4 -10z m1655 -367 c-2 -10
-4 -20 -5 -23 -1 -3 -2 -8 -1 -12 0 -4 -5 -5 -13 -2 -11 4 -11 10 -2 30 13 28
26 32 21 7z m2325 -671 c0 -4 -10 -13 -22 -21 -23 -14 -23 -14 -4 8 20 22 26
25 26 13z m-65 -54 c-6 -21 -5 -22 8 -5 13 16 14 15 12 -15 -2 -18 -4 -35 -4
-37 -1 -3 -11 5 -24 17 -14 13 -27 18 -33 13 -5 -6 -14 -4 -21 4 -10 10 -9 14
3 19 9 3 12 1 9 -4 -3 -6 -1 -10 4 -10 6 0 11 6 11 13 0 9 2 9 9 -1 6 -10 10
-9 14 7 3 12 8 21 12 21 3 0 4 -10 0 -22z m-97 -43 c-10 -10 -49 -14 -43 -4 4
5 10 7 15 4 5 -3 12 0 15 6 4 5 10 8 13 5 3 -3 3 -8 0 -11z m-65 -40 c-3 -9
-8 -14 -10 -11 -3 3 -2 9 2 15 9 16 15 13 8 -4z m-184 -89 c9 -11 9 -16 -1
-22 -7 -4 -10 -4 -6 1 4 4 3 14 -3 22 -6 7 -9 13 -6 13 2 0 10 -6 16 -14z
m-94 -46 c-3 -5 -14 -10 -23 -9 -14 0 -13 2 3 9 27 11 27 11 20 0z m16 -17
c-12 -20 -14 -14 -5 12 4 9 9 14 11 11 3 -2 0 -13 -6 -23z m-101 -33 c-6 -11
-13 -20 -16 -20 -2 0 0 9 6 20 6 11 13 20 16 20 2 0 0 -9 -6 -20z m-30 -20 c0
-5 -4 -10 -10 -10 -5 0 -10 5 -10 10 0 6 5 10 10 10 6 0 10 -4 10 -10z m-63
-16 c-3 -3 -12 -4 -19 -1 -8 3 -5 6 6 6 11 1 17 -2 13 -5z m33 2 c0 -2 -7 -9
-15 -16 -13 -11 -14 -10 -9 4 5 14 24 23 24 12z m-50 -26 c0 -5 -2 -10 -4 -10
-3 0 -8 5 -11 10 -3 6 -1 10 4 10 6 0 11 -4 11 -10z m-20 -14 c0 -2 -9 -6 -20
-9 -11 -3 -18 -1 -14 4 5 9 34 13 34 5z m-86 -21 c-4 -8 -11 -15 -16 -15 -6 0
-5 6 2 15 7 8 14 15 16 15 2 0 1 -7 -2 -15z m36 1 c0 -3 -4 -8 -10 -11 -5 -3
-10 -1 -10 4 0 6 5 11 10 11 6 0 10 -2 10 -4z m-72 -31 c-3 -3 -9 2 -12 12 -6
14 -5 15 5 6 7 -7 10 -15 7 -18z m-41 0 c0 -8 -4 -12 -9 -9 -5 3 -6 10 -3 15
9 13 12 11 12 -6z m-2 -34 c-3 -2 -11 1 -19 8 -11 9 -15 8 -20 -4 -3 -8 -9
-15 -13 -14 -20 3 -34 -2 -28 -11 3 -5 1 -10 -4 -10 -6 0 -11 4 -11 9 0 14 28
33 39 27 5 -3 12 1 15 9 5 13 9 13 25 3 11 -7 18 -14 16 -17z m-130 -21 c-3
-5 2 -10 11 -10 10 0 15 -3 11 -6 -3 -3 -15 -3 -28 1 -17 6 -19 9 -8 16 18 11
22 11 14 -1z m-27 -32 c-5 -13 -38 -20 -38 -8 0 8 17 18 33 19 5 1 7 -4 5 -11z
m-48 -12 c0 -2 -7 -7 -16 -10 -8 -3 -12 -2 -9 4 6 10 25 14 25 6z m-30 -30 c0
-3 -4 -8 -10 -11 -5 -3 -10 -1 -10 4 0 6 5 11 10 11 6 0 10 -2 10 -4z m-5525
-66 c3 -5 1 -10 -4 -10 -6 0 -11 5 -11 10 0 6 2 10 4 10 3 0 8 -4 11 -10z
m-152 -207 c-5 -12 -3 -14 7 -8 9 5 11 4 6 -3 -5 -9 -13 -9 -27 -1 -16 8 -18
13 -9 25 15 18 31 9 23 -13z m-53 -213 c-18 -12 -30 -13 -30 -2 0 4 10 9 22 9
18 2 20 0 8 -7z m10 -74 c0 -3 -4 -8 -10 -11 -5 -3 -10 -1 -10 4 0 6 5 11 10
11 6 0 10 -2 10 -4z m530 -246 c3 -2 9 -2 13 -1 5 1 6 -3 2 -8 -3 -6 6 -9 24
-6 20 2 30 -1 28 -8 -1 -7 7 -11 18 -10 11 1 14 0 8 -3 -10 -4 -10 -11 -2 -25
10 -19 29 -18 29 2 0 6 -4 7 -10 4 -6 -3 -7 1 -3 10 4 12 8 13 13 5 4 -7 16
-10 26 -6 11 3 26 1 34 -4 12 -8 12 -10 -5 -11 -11 -1 -26 -1 -34 0 -8 2 -10
-2 -5 -10 4 -7 3 -10 -3 -6 -6 4 -16 0 -23 -8 -7 -8 -16 -12 -21 -9 -5 3 -9
-1 -9 -8 0 -8 -3 -9 -8 -3 -11 16 -30 16 -36 0 -3 -10 0 -12 12 -8 9 3 -1 -8
-23 -25 -46 -37 -49 -39 -74 -70 l-19 -23 3 53 c2 29 4 57 4 61 1 5 7 5 14 2
6 -4 4 0 -5 8 -22 17 -23 28 -3 21 11 -5 13 -2 9 10 -3 8 -11 14 -17 13 -6 -1
-12 10 -12 25 -1 15 3 24 7 21 5 -2 6 -14 2 -25 -4 -13 -2 -18 4 -14 6 3 14 2
17 -4 5 -8 11 -7 22 1 12 11 14 10 11 -7 -1 -10 -7 -22 -13 -26 -5 -4 -6 -10
-2 -15 9 -9 28 17 21 29 -3 4 -3 8 0 8 2 0 12 3 21 7 15 5 16 3 4 -18 -16 -30
-20 -51 -8 -43 5 3 7 10 4 15 -4 5 -1 9 4 9 6 0 11 7 11 16 0 13 3 14 14 5 10
-9 16 -8 26 4 7 9 10 18 6 22 -3 3 -6 2 -6 -4 0 -5 -7 -10 -15 -10 -8 0 -11 5
-8 10 4 6 1 7 -7 2 -9 -6 -11 -4 -5 4 6 10 3 11 -15 1 -12 -7 -20 -8 -16 -2 3
5 -1 15 -9 22 -8 7 -16 10 -16 6 -1 -6 -5 -18 -8 -33 -2 -5 -6 1 -10 12 -5 12
-4 26 3 34 9 12 8 13 -7 8 -11 -4 -16 -3 -12 3 5 8 34 8 55 0z m2023 -505 c-3
-9 -8 -14 -10 -11 -3 3 -2 9 2 15 9 16 15 13 8 -4z m23 0 c-5 -15 9 -22 17 -7
2 4 2 1 1 -5 -2 -8 7 -13 21 -13 14 0 25 -4 25 -9 0 -9 -48 0 -69 14 -10 5 -4
35 6 35 3 0 3 -7 -1 -15z m3954 9 c0 -8 -19 -13 -24 -6 -3 5 1 9 9 9 8 0 15
-2 15 -3z m-3870 -24 c0 -5 -2 -10 -4 -10 -3 0 -8 5 -11 10 -3 6 -1 10 4 10 6
0 11 -4 11 -10z m3843 -85 c-3 -9 -8 -14 -10 -11 -3 3 -2 9 2 15 9 16 15 13 8
-4z m-3946 -40 c0 -8 -4 -12 -9 -9 -5 3 -6 10 -3 15 9 13 12 11 12 -6z m3943
-15 c0 -5 -5 -10 -11 -10 -5 0 -7 5 -4 10 3 6 8 10 11 10 2 0 4 -4 4 -10z m-5
-60 c3 -5 1 -10 -4 -10 -6 0 -11 5 -11 10 0 6 2 10 4 10 3 0 8 -4 11 -10z
m-15 -75 c7 -9 8 -15 2 -15 -5 0 -12 7 -16 15 -3 8 -4 15 -2 15 2 0 9 -7 16
-15z m-15 -84 c3 -5 2 -12 -3 -15 -5 -3 -9 1 -9 9 0 17 3 19 12 6z m-20 -130
c3 -5 2 -12 -3 -15 -5 -3 -9 1 -9 9 0 17 3 19 12 6z m-6475 -67 c0 -8 -19 -13
-24 -6 -3 5 1 9 9 9 8 0 15 -2 15 -3z m88 -69 c-3 -3 -9 2 -12 12 -6 14 -5 15
5 6 7 -7 10 -15 7 -18z m6362 -59 c0 -8 -4 -17 -8 -20 -4 -2 -8 4 -8 15 0 10
4 19 8 19 4 0 8 -6 8 -14z m-13 -78 c-3 -8 -6 -5 -6 6 -1 11 2 17 5 13 3 -3 4
-12 1 -19z m-22 -138 c-3 -5 -11 -10 -16 -10 -6 0 -7 5 -4 10 3 6 11 10 16 10
6 0 7 -4 4 -10z m-27 -178 c2 -12 -1 -22 -6 -22 -6 0 -8 10 -4 22 3 14 1 19
-6 14 -6 -3 -13 -2 -16 3 -4 5 2 8 11 7 10 -2 19 -13 21 -24z m2 -41 c0 -6 -4
-12 -9 -15 -5 -3 -7 -20 -5 -37 4 -32 -17 -38 -22 -6 -1 10 2 14 9 10 6 -4 8
0 4 10 -3 9 -2 19 4 22 5 4 7 11 4 16 -4 5 -1 9 4 9 6 0 11 -4 11 -9z m-60
-57 c0 -8 -19 -13 -24 -6 -3 5 1 9 9 9 8 0 15 -2 15 -3z m37 -51 c0 -10 -4
-24 -10 -30 -6 -9 -6 -13 2 -13 7 0 10 -3 8 -7 -3 -5 -8 -33 -11 -62 -4 -30
-9 -57 -12 -60 -9 -10 -34 -9 -34 1 0 6 6 8 13 5 16 -6 19 22 4 41 -8 10 -7
12 4 10 10 -2 14 8 15 39 0 24 4 46 7 50 12 12 7 23 -10 24 -15 0 -15 2 2 9
11 5 20 9 21 9 0 1 1 -7 1 -16z m-39 -49 c0 -17 -3 -22 -8 -13 -5 6 -6 18 -3
26 8 19 11 16 11 -13z m-21 -59 c0 -8 -4 -12 -9 -9 -5 3 -6 10 -3 15 9 13 12
11 12 -6z m29 -127 c-7 -63 -15 -120 -21 -148 -3 -14 -7 -43 -10 -65 -12 -101
-21 -160 -25 -160 -2 0 -11 -91 -11 -114 1 -12 -2 -28 -6 -35 -4 -6 -8 -22 -9
-36 -2 -36 -2 -36 -25 -37 -18 -2 -19 0 -7 10 9 7 18 21 22 32 5 17 3 16 -15
-5 -18 -23 -19 -23 -9 -2 6 13 7 22 1 22 -5 0 -12 -5 -14 -10 -3 -6 -4 -5 -3
2 2 7 10 13 19 13 8 0 19 4 23 8 4 4 2 7 -4 7 -6 0 -10 9 -9 19 0 11 5 17 9
15 5 -3 6 -10 3 -15 -4 -5 -1 -9 4 -9 15 0 14 23 -1 39 -10 11 -10 13 0 7 6
-4 12 -2 12 3 0 6 -6 11 -12 11 -9 0 -10 2 -2 8 15 9 28 52 16 52 -5 0 -9 14
-10 30 0 17 3 30 8 30 5 0 7 -6 4 -14 -3 -8 -2 -16 3 -19 4 -3 9 10 9 29 1 22
-3 32 -10 28 -6 -3 -3 1 7 9 17 14 25 83 9 73 -5 -3 -9 1 -9 8 0 8 6 12 12 10
6 -3 12 2 12 11 0 9 -6 14 -12 11 -6 -2 -12 2 -12 9 0 8 7 11 16 7 9 -3 13 -2
9 3 -4 4 -3 14 3 22 14 16 -2 18 -18 2 -8 -8 -13 -8 -18 0 -4 7 -1 10 7 9 7
-2 12 2 11 9 -2 8 4 10 15 6 15 -6 15 -5 3 10 -12 16 -12 17 5 10 17 -6 17 -5
5 10 -7 9 -9 17 -4 17 10 0 12 5 16 60 1 19 -2 38 -8 42 -6 5 -3 8 8 8 14 0
16 -7 13 -42z m-28 -25 c-2 -9 -11 -17 -21 -19 -9 -1 -15 2 -11 7 3 5 10 7 15
4 5 -4 9 1 9 9 0 9 3 16 6 16 3 0 4 -7 2 -17z m-25 -48 c-3 -9 -8 -14 -10 -11
-3 3 -2 9 2 15 9 16 15 13 8 -4z m-33 -165 c0 -5 -2 -10 -4 -10 -3 0 -8 5 -11
10 -3 6 -1 10 4 10 6 0 11 -4 11 -10z m25 -38 c-3 -3 -11 0 -18 7 -9 10 -8 11
6 5 10 -3 15 -9 12 -12z m-28 -34 c-3 -8 -6 -5 -6 6 -1 11 2 17 5 13 3 -3 4
-12 1 -19z m-25 -164 c-9 -16 -10 -14 -9 8 1 15 6 23 11 18 4 -4 4 -16 -2 -26z
m-37 -103 c3 -5 2 -12 -3 -15 -5 -3 -9 1 -9 9 0 17 3 19 12 6z m19 -47 c3 -8
2 -12 -4 -9 -6 3 -10 10 -10 16 0 14 7 11 14 -7z m42 -6 c-3 -13 -6 -31 -6
-40 0 -10 -3 -18 -7 -18 -5 0 -8 13 -8 29 0 16 5 27 10 24 6 -2 1 3 -9 11 -19
16 -19 16 3 16 19 0 22 -4 17 -22z m-32 -27 c-7 -8 -54 -9 -49 -1 2 3 15 6 29
6 14 0 23 -2 20 -5z m19 -61 c-4 -16 -8 -18 -19 -9 -16 13 -10 29 11 29 8 0
11 -7 8 -20z m-8 -51 c-4 -11 -7 -33 -7 -49 -2 -56 -13 -39 -13 20 0 42 3 56
13 53 7 -3 10 -13 7 -24z m-55 -65 c0 -8 -19 -13 -24 -6 -3 5 1 9 9 9 8 0 15
-2 15 -3z m34 -61 c-3 -16 -6 -35 -7 -44 -1 -9 -7 -15 -13 -12 -15 5 -11 36 4
41 18 6 14 22 -5 23 -15 0 -15 2 2 9 11 5 21 9 22 9 1 1 -1 -11 -3 -26z m-16
-94 c-3 -8 -7 -3 -11 10 -4 17 -3 21 5 13 5 -5 8 -16 6 -23z m-1 -36 c0 -7 -4
-13 -8 -13 -4 0 -9 6 -12 13 -3 8 0 14 7 14 7 0 13 -6 13 -14z m-7 -46 c0 -11
-1 -18 -3 -16 -1 2 -8 11 -15 20 -9 13 -9 16 3 16 8 0 15 -9 15 -20z m-8 -34
c-6 -2 -9 -10 -6 -15 4 -7 2 -8 -5 -4 -13 9 -5 26 12 25 9 0 8 -2 -1 -6z m-6
-49 c-1 -8 -8 -19 -14 -24 -9 -7 -9 -7 -2 2 6 7 6 18 -1 29 -7 14 -6 17 5 13
8 -3 13 -12 12 -20z m-41 -4 c3 -5 1 -10 -4 -10 -6 0 -11 5 -11 10 0 6 2 10 4
10 3 0 8 -4 11 -10z m35 -60 c0 -13 -6 -20 -17 -19 -11 0 -13 3 -5 6 6 2 12
11 12 19 0 8 2 14 5 14 3 0 5 -9 5 -20z m-50 -55 c14 -19 14 -19 -2 -6 -10 7
-18 18 -18 24 0 6 1 8 3 6 1 -2 9 -13 17 -24z m38 0 c-3 -27 -10 -25 -15 5 -2
11 2 20 7 20 5 0 9 -11 8 -25z m-4 -46 c-3 -5 -8 -33 -10 -61 -4 -53 -13 -73
-21 -50 -3 6 -10 9 -15 6 -6 -4 -8 -2 -4 4 3 5 0 13 -6 16 -7 3 -2 3 12 0 14
-4 22 -3 18 1 -4 4 -2 17 4 28 9 17 8 19 -8 13 -17 -7 -17 -6 0 13 10 11 16
27 13 35 -4 10 -1 13 8 9 8 -3 12 -9 9 -14z m-34 -3 c0 -2 -8 -10 -17 -17 -16
-13 -17 -12 -4 4 13 16 21 21 21 13z m-1158 -45 c-18 -18 -48 -9 -36 11 4 6
10 5 15 -3 8 -13 13 -6 10 13 0 4 6 5 13 2 12 -5 12 -9 -2 -23z m33 -60 c3 -5
2 -12 -3 -15 -5 -3 -9 1 -9 9 0 17 3 19 12 6z m1105 -15 c0 -2 -8 -10 -17 -17
-16 -13 -17 -12 -4 4 13 16 21 21 21 13z m-17 -80 c-4 -5 1 -7 12 -2 15 5 16
4 5 -9 -12 -15 -14 -15 -22 0 -5 8 -13 13 -18 10 -5 -3 -11 -2 -14 3 -2 4 6 8
19 8 13 0 21 -4 18 -10z m1 -58 c-5 -7 -11 -6 -19 5 -7 9 -16 13 -20 9 -5 -4
-5 -1 -1 6 5 9 12 9 27 2 11 -6 16 -16 13 -22z m-34 -34 c0 -8 -19 -13 -24 -6
-3 5 1 9 9 9 8 0 15 -2 15 -3z m28 -66 c-3 -14 -18 -28 -30 -28 -4 0 0 9 9 20
20 23 24 25 21 8z m-58 -78 c0 -5 -5 -10 -11 -10 -5 0 -7 5 -4 10 3 6 8 10 11
10 2 0 4 -4 4 -10z m-20 -60 c0 -5 -2 -10 -4 -10 -3 0 -8 5 -11 10 -3 6 -1 10
4 10 6 0 11 -4 11 -10z m-25 -212 c5 4 5 1 1 -6 -6 -10 -11 -10 -22 -1 -8 6
-14 14 -14 16 0 3 6 0 13 -6 8 -6 18 -7 22 -3z m-16 -60 c-5 -10 -11 -18 -12
-18 -2 0 -3 8 -3 18 0 10 6 19 13 19 8 0 9 -6 2 -19z m-3369 -7 c7 -15 7 -22
-2 -27 -7 -4 -10 -4 -6 1 4 4 3 16 -3 26 -5 11 -7 19 -5 19 3 0 10 -9 16 -19z"/>
<path d="M7370 5786 c0 -2 8 -10 18 -17 15 -13 16 -12 3 4 -13 16 -21 21 -21
13z"/>
<path d="M1109 4463 c-12 -16 -12 -17 2 -5 13 10 19 9 29 -3 7 -9 19 -14 26
-11 7 3 16 1 19 -4 4 -6 11 -10 17 -10 6 0 6 6 -2 15 -7 9 -20 13 -28 10 -8
-3 -23 1 -32 10 -16 14 -18 14 -31 -2z"/>
<path d="M1216 4402 c-3 -5 1 -9 9 -9 8 0 12 4 9 9 -3 4 -7 8 -9 8 -2 0 -6 -4
-9 -8z"/>
<path d="M1114 4346 c1 -8 5 -18 8 -22 4 -3 5 1 4 10 -1 8 -5 18 -8 22 -4 3
-5 -1 -4 -10z"/>
<path d="M754 5273 c4 -6 0 -14 -6 -16 -7 -3 -4 -6 7 -7 20 -1 20 -1 1 -15
-11 -8 -15 -15 -9 -15 23 0 33 26 17 46 -8 10 -13 14 -10 7z"/>
<path d="M725 5179 c6 -8 -5 -24 -31 -47 -21 -19 -34 -31 -27 -28 6 4 14 2 18
-4 9 -14 25 -3 19 13 -5 14 41 59 50 50 3 -4 6 -3 6 0 0 3 -10 11 -21 18 -17
9 -20 8 -14 -2z"/>
<path d="M685 5158 l-20 -21 23 12 c12 6 22 16 22 21 0 13 -2 12 -25 -12z"/>
<path d="M590 5065 c0 -7 30 -13 34 -7 3 4 -4 9 -15 9 -10 1 -19 0 -19 -2z"/>
<path d="M506 4922 c-2 -4 4 -8 14 -8 10 0 16 4 14 8 -3 4 -9 8 -14 8 -5 0
-11 -4 -14 -8z"/>
<path d="M540 4770 c-8 -5 -11 -13 -6 -17 5 -4 11 -2 13 5 3 6 10 9 15 6 7 -4
8 -2 4 4 -9 14 -7 14 -26 2z"/>
<path d="M6625 760 c-3 -5 1 -10 10 -10 9 0 13 5 10 10 -3 6 -8 10 -10 10 -2
0 -7 -4 -10 -10z"/>
<path d="M6632 495 c0 -16 2 -22 5 -12 2 9 2 23 0 30 -3 6 -5 -1 -5 -18z"/>
<path d="M6622 440 c0 -14 2 -19 5 -12 2 6 2 18 0 25 -3 6 -5 1 -5 -13z"/>
<path d="M6614 396 c-3 -8 -4 -25 -2 -38 3 -17 5 -13 9 15 5 38 2 47 -7 23z"/>
</g>
</svg>
